<svg id="Layer_1" data-name="Layer 1" xmlns="http://www.w3.org/2000/svg" viewBox="0 0 475.48 319.48"><defs><style>.cls-1{fill:#557ae0;}</style></defs><title>ilmi-logo</title><path class="cls-1" d="M72.19,289.4a13.78,13.78,0,0,1-13.61-13.61V171a13.81,13.81,0,0,1,27.62,0V275.79A13.87,13.87,0,0,1,72.19,289.4Z"/><path class="cls-1" d="M194.62,288.23h-56.2a15.6,15.6,0,0,1-15.56-15.56V171a13.81,13.81,0,0,1,27.62,0v93h44.15a12,12,0,0,1,11.86,11.86A12.17,12.17,0,0,1,194.62,288.23Z"/><path class="cls-1" d="M351.18,289.4a13.86,13.86,0,0,1-13.81-13.81V197.41l-35,86.93a8.21,8.21,0,0,1-7.78,5.06,8.07,8.07,0,0,1-7.39-5.06l-35-86.93v78.37a13.81,13.81,0,0,1-27.62,0V174.08a15.6,15.6,0,0,1,15.56-15.56c12.64-1.36,23.53,1.36,28.2,12.64l26.45,65.73,26.45-65.73a20.17,20.17,0,0,1,18.86-12.64c12.45-1.94,25.09,2.72,25.09,15.56V275.59A13.9,13.9,0,0,1,351.18,289.4Z"/><path class="cls-1" d="M404.47,289.4a13.78,13.78,0,0,1-13.61-13.61V171a13.81,13.81,0,0,1,27.62,0V275.79A13.87,13.87,0,0,1,404.47,289.4Z"/><path class="cls-1" d="M72.38,171a49.13,49.13,0,1,1,49.13-49.13A49.18,49.18,0,0,1,72.38,171Zm0-73.25a24.13,24.13,0,1,0,24.13,24.13A24.15,24.15,0,0,0,72.38,97.75Z"/><path class="cls-1" d="M406.36,171a49.13,49.13,0,1,1,49.13-49.13A49.18,49.18,0,0,1,406.36,171Zm0-73.25a24.13,24.13,0,1,0,24.13,24.13A24.15,24.15,0,0,0,406.36,97.75Z"/><path class="cls-1" d="M335.34,79.55a12.45,12.45,0,0,1-8.5-3.34l-0.63-.58A12.5,12.5,0,1,1,343,57.11l0.84,0.77A12.5,12.5,0,0,1,335.34,79.55Zm-191.21-.47a12.5,12.5,0,0,1-7.5-22.51l0.89-.66a12.5,12.5,0,0,1,14.81,20.14l-0.71.53A12.44,12.44,0,0,1,144.14,79.08Zm45.39-22.69A12.5,12.5,0,0,1,185.81,32l1-.32a12.5,12.5,0,1,1,7.28,23.92l-0.87.27A12.5,12.5,0,0,1,189.53,56.39Zm101.53-1.25a12.49,12.49,0,0,1-3.67-.55l-0.86-.26a12.5,12.5,0,0,1,7.14-24l1.05,0.32A12.5,12.5,0,0,1,291.06,55.14Zm-51.34-6.83a12.5,12.5,0,0,1-.27-25l1.09,0h0.19a12.5,12.5,0,0,1,.18,25l-0.91,0h-0.28Z"/></svg>